<?xml version="1.0" encoding="utf-8"?>
<!-- Generator: Adobe Illustrator 21.1.0, SVG Export Plug-In . SVG Version: 6.00 Build 0)  -->
<svg version="1.1" id="레이어_1" xmlns="http://www.w3.org/2000/svg" xmlns:xlink="http://www.w3.org/1999/xlink" x="0px"
	 y="0px" viewBox="0 0 99.2 44.5" style="enable-background:new 0 0 99.2 44.5;" xml:space="preserve">
<style type="text/css">
	.st0{fill:#B8B8B8;}
	.st1{clip-path:url(#SVGID_2_);}
	.st2{clip-path:url(#SVGID_4_);fill:#B8B8B8;}
	.st3{clip-path:url(#SVGID_6_);}
	.st4{clip-path:url(#SVGID_8_);fill:#9B9B9B;}
	.st5{clip-path:url(#SVGID_10_);}
	.st6{clip-path:url(#SVGID_12_);}
	.st7{clip-path:url(#SVGID_14_);}
	.st8{clip-path:url(#SVGID_16_);}
	.st9{clip-path:url(#SVGID_18_);fill:#9B9B9B;}
	.st10{clip-path:url(#SVGID_20_);}
	.st11{clip-path:url(#SVGID_22_);fill:#B8B8B8;}
	.st12{clip-path:url(#SVGID_24_);}
	.st13{clip-path:url(#SVGID_26_);fill:#9B9B9B;}
	.st14{clip-path:url(#SVGID_28_);}
	.st15{clip-path:url(#SVGID_30_);fill:#B8B8B8;}
	.st16{clip-path:url(#SVGID_32_);}
	.st17{clip-path:url(#SVGID_34_);fill:#9B9B9B;}
	.st18{clip-path:url(#SVGID_36_);}
	.st19{clip-path:url(#SVGID_38_);fill:#9B9B9B;}
	.st20{clip-path:url(#SVGID_40_);}
	.st21{clip-path:url(#SVGID_42_);fill:#9B9B9B;}
	.st22{clip-path:url(#SVGID_44_);}
	.st23{clip-path:url(#SVGID_46_);fill:#9B9B9B;}
	.st24{clip-path:url(#SVGID_48_);}
	.st25{clip-path:url(#SVGID_50_);fill:#9B9B9B;}
	.st26{clip-path:url(#SVGID_52_);}
	.st27{clip-path:url(#SVGID_54_);fill:#9B9B9B;}
	.st28{clip-path:url(#SVGID_56_);}
	.st29{clip-path:url(#SVGID_58_);fill:#9B9B9B;}
	.st30{clip-path:url(#SVGID_60_);}
	.st31{clip-path:url(#SVGID_62_);fill:#9B9B9B;}
	.st32{clip-path:url(#SVGID_64_);}
	.st33{clip-path:url(#SVGID_66_);fill:#9B9B9B;}
	.st34{clip-path:url(#SVGID_68_);}
	.st35{clip-path:url(#SVGID_70_);fill:#9B9B9B;}
	.st36{clip-path:url(#SVGID_72_);}
	.st37{clip-path:url(#SVGID_74_);fill:#9B9B9B;}
</style>
<g>
	<rect x="27" y="1.5" class="st0" width="36" height="36"/>
	<g>
		<defs>
			<polyline id="SVGID_1_" points="26.9,14.5 9.7,14.6 2,26.2 2,38.5 27,38.4 			"/>
		</defs>
		<clipPath id="SVGID_2_">
			<use xlink:href="#SVGID_1_"  style="overflow:visible;"/>
		</clipPath>
		<g class="st1">
			<defs>
				<rect id="SVGID_3_" x="-588" y="-723.5" width="1920" height="1530"/>
			</defs>
			<clipPath id="SVGID_4_">
				<use xlink:href="#SVGID_3_"  style="overflow:visible;"/>
			</clipPath>
			<rect x="-3" y="9.5" class="st2" width="35" height="34"/>
		</g>
	</g>
	<g>
		<defs>
			<path id="SVGID_5_" d="M1.8,39.4c-0.5,0-0.9-0.2-1.2-0.5C0.2,38.5,0,38.1,0,37.6l0-12.7c0-0.3,0.1-0.7,0.3-0.9l7.6-12.1
				c0.3-0.5,0.9-0.8,1.5-0.8L26.4,11c0.9,0,1.7,0.8,1.7,1.7c0,1-0.8,1.7-1.7,1.7l-16.1,0.1L3.4,25.4l0,10.5l23-0.1h0
				c0.9,0,1.7,0.8,1.7,1.7c0,1-0.8,1.7-1.7,1.7L1.8,39.4L1.8,39.4z"/>
		</defs>
		<clipPath id="SVGID_6_">
			<use xlink:href="#SVGID_5_"  style="overflow:visible;"/>
		</clipPath>
		<g class="st3">
			<defs>
				<rect id="SVGID_7_" x="-588" y="-724.5" width="1920" height="1530"/>
			</defs>
			<clipPath id="SVGID_8_">
				<use xlink:href="#SVGID_7_"  style="overflow:visible;"/>
			</clipPath>
			<rect x="-5" y="6" class="st4" width="38.2" height="38.3"/>
		</g>
	</g>
	<g>
		<defs>
			<rect id="SVGID_9_" x="25.9" width="39.1" height="39.3"/>
		</defs>
		<clipPath id="SVGID_10_">
			<use xlink:href="#SVGID_9_"  style="overflow:visible;"/>
		</clipPath>
		<g class="st5">
			<defs>
				<rect id="SVGID_11_" x="-588" y="-724.5" width="1920" height="1530"/>
			</defs>
			<clipPath id="SVGID_12_">
				<use xlink:href="#SVGID_11_"  style="overflow:visible;"/>
			</clipPath>
			<g class="st6">
				<defs>
					<rect id="SVGID_13_" x="25" y="-0.5" width="41" height="40"/>
				</defs>
				<clipPath id="SVGID_14_">
					<use xlink:href="#SVGID_13_"  style="overflow:visible;"/>
				</clipPath>
				<g class="st7">
					<defs>
						<path id="SVGID_15_" d="M27.7,39.3c-1,0-1.7-0.8-1.7-1.7L25.9,1.9c0-0.5,0.2-0.9,0.5-1.2c0.3-0.3,0.8-0.5,1.2-0.5L63.2,0h0
							c0.5,0,0.9,0.2,1.2,0.5c0.3,0.3,0.5,0.8,0.5,1.2L65,37.4c0,1-0.8,1.7-1.7,1.7L27.7,39.3L27.7,39.3z M29.3,3.6l0.1,32.3
							l32.1-0.1L61.5,3.5L29.3,3.6z"/>
					</defs>
					<clipPath id="SVGID_16_">
						<use xlink:href="#SVGID_15_"  style="overflow:visible;"/>
					</clipPath>
					<g class="st8">
						<defs>
							<rect id="SVGID_17_" x="25" y="-0.5" width="41" height="40"/>
						</defs>
						<clipPath id="SVGID_18_">
							<use xlink:href="#SVGID_17_"  style="overflow:visible;"/>
						</clipPath>
						<rect x="20.9" y="-5" class="st9" width="49.1" height="49.3"/>
					</g>
				</g>
			</g>
		</g>
	</g>
	<g>
		<defs>
			<path id="SVGID_19_" d="M39.2,36.6c0,3.4,2.8,6.1,6.1,6.1c3.4,0,6.1-2.8,6.1-6.2c0-3.4-2.8-6.1-6.1-6.1
				C41.9,30.4,39.2,33.2,39.2,36.6"/>
		</defs>
		<clipPath id="SVGID_20_">
			<use xlink:href="#SVGID_19_"  style="overflow:visible;"/>
		</clipPath>
		<g class="st10">
			<defs>
				<rect id="SVGID_21_" x="-588" y="-724.5" width="1920" height="1530"/>
			</defs>
			<clipPath id="SVGID_22_">
				<use xlink:href="#SVGID_21_"  style="overflow:visible;"/>
			</clipPath>
			<rect x="34.2" y="25.4" class="st11" width="22.2" height="22.3"/>
		</g>
	</g>
	<g>
		<defs>
			<path id="SVGID_23_" d="M45.3,44.4c-2.1,0-4-0.8-5.5-2.3c-1.5-1.5-2.3-3.5-2.3-5.6c0-4.3,3.5-7.9,7.8-7.9c4.3,0,7.9,3.5,7.9,7.9
				c0,2.1-0.8,4.1-2.3,5.6S47.4,44.4,45.3,44.4L45.3,44.4z M40.9,36.5c0,1.2,0.5,2.3,1.3,3.1c0.8,0.8,1.9,1.3,3.1,1.3h0
				c1.2,0,2.3-0.5,3.1-1.3c0.8-0.8,1.3-1.9,1.3-3.1c0-2.4-2-4.4-4.4-4.4h0C42.9,32.1,40.9,34.1,40.9,36.5z"/>
		</defs>
		<clipPath id="SVGID_24_">
			<use xlink:href="#SVGID_23_"  style="overflow:visible;"/>
		</clipPath>
		<g class="st12">
			<defs>
				<rect id="SVGID_25_" x="-588" y="-724.5" width="1920" height="1530"/>
			</defs>
			<clipPath id="SVGID_26_">
				<use xlink:href="#SVGID_25_"  style="overflow:visible;"/>
			</clipPath>
			<rect x="32.4" y="23.7" class="st13" width="25.7" height="25.8"/>
		</g>
	</g>
	<g>
		<defs>
			<path id="SVGID_27_" d="M8,36.7c0,3.4,2.8,6.1,6.1,6.1c3.4,0,6.1-2.8,6.1-6.2c0-3.4-2.8-6.1-6.1-6.1C10.7,30.5,8,33.3,8,36.7"/>
		</defs>
		<clipPath id="SVGID_28_">
			<use xlink:href="#SVGID_27_"  style="overflow:visible;"/>
		</clipPath>
		<g class="st14">
			<defs>
				<rect id="SVGID_29_" x="-588" y="-724.5" width="1920" height="1530"/>
			</defs>
			<clipPath id="SVGID_30_">
				<use xlink:href="#SVGID_29_"  style="overflow:visible;"/>
			</clipPath>
			<rect x="3" y="25.5" class="st15" width="22.2" height="22.3"/>
		</g>
	</g>
	<g>
		<defs>
			<path id="SVGID_31_" d="M14.1,44.5c-4.3,0-7.8-3.5-7.8-7.9c0-2.1,0.8-4.1,2.3-5.6c1.5-1.5,3.4-2.3,5.5-2.3h0
				c4.3,0,7.8,3.5,7.8,7.9c0,2.1-0.8,4.1-2.3,5.6C18.2,43.7,16.2,44.5,14.1,44.5L14.1,44.5z M9.7,36.6c0,2.4,2,4.4,4.4,4.4h0
				c1.2,0,2.3-0.5,3.1-1.3c0.8-0.8,1.3-1.9,1.3-3.1c0-2.4-2-4.4-4.4-4.4h0c-1.2,0-2.3,0.5-3.1,1.3C10.2,34.4,9.7,35.5,9.7,36.6z"/>
		</defs>
		<clipPath id="SVGID_32_">
			<use xlink:href="#SVGID_31_"  style="overflow:visible;"/>
		</clipPath>
		<g class="st16">
			<defs>
				<rect id="SVGID_33_" x="-588" y="-724.5" width="1920" height="1530"/>
			</defs>
			<clipPath id="SVGID_34_">
				<use xlink:href="#SVGID_33_"  style="overflow:visible;"/>
			</clipPath>
			<rect x="1.3" y="23.8" class="st17" width="25.7" height="25.8"/>
		</g>
	</g>
	<g>
		<defs>
			<path id="SVGID_35_" d="M5.9,27c-0.9,0-1.7-0.8-1.7-1.7l0-6.8c0-1,0.8-1.7,1.7-1.7c1,0,1.7,0.8,1.7,1.7l0,5.1l11.9,0l0-10.4
				c0-1,0.8-1.7,1.7-1.7h0c1,0,1.7,0.8,1.7,1.7l0,12.2c0,0.5-0.2,0.9-0.5,1.2c-0.3,0.3-0.8,0.5-1.2,0.5L5.9,27L5.9,27z"/>
		</defs>
		<clipPath id="SVGID_36_">
			<use xlink:href="#SVGID_35_"  style="overflow:visible;"/>
		</clipPath>
		<g class="st18">
			<defs>
				<rect id="SVGID_37_" x="-588" y="-724.5" width="1920" height="1530"/>
			</defs>
			<clipPath id="SVGID_38_">
				<use xlink:href="#SVGID_37_"  style="overflow:visible;"/>
			</clipPath>
			<rect x="-0.8" y="6.3" class="st19" width="28.9" height="25.7"/>
		</g>
	</g>
	<g>
		<defs>
			<path id="SVGID_39_" d="M97.5,8.1H71.4c-1,0-1.7-0.8-1.7-1.7c0-1,0.8-1.7,1.7-1.7h26.1c1,0,1.7,0.8,1.7,1.7
				C99.2,7.4,98.5,8.1,97.5,8.1"/>
		</defs>
		<clipPath id="SVGID_40_">
			<use xlink:href="#SVGID_39_"  style="overflow:visible;"/>
		</clipPath>
		<g class="st20">
			<defs>
				<rect id="SVGID_41_" x="-588" y="-724.5" width="1920" height="1530"/>
			</defs>
			<clipPath id="SVGID_42_">
				<use xlink:href="#SVGID_41_"  style="overflow:visible;"/>
			</clipPath>
			<rect x="64.6" y="-0.3" class="st21" width="39.6" height="13.5"/>
		</g>
	</g>
	<g>
		<defs>
			<line id="SVGID_43_" x1="71.4" y1="14.7" x2="88.8" y2="14.7"/>
		</defs>
		<clipPath id="SVGID_44_">
			<use xlink:href="#SVGID_43_"  style="overflow:visible;"/>
		</clipPath>
		<g class="st22">
			<defs>
				<rect id="SVGID_45_" x="-588" y="-724.5" width="1920" height="1530"/>
			</defs>
			<clipPath id="SVGID_46_">
				<use xlink:href="#SVGID_45_"  style="overflow:visible;"/>
			</clipPath>
			<rect x="66.4" y="9.7" class="st23" width="27.4" height="10"/>
		</g>
	</g>
	<g>
		<defs>
			<path id="SVGID_47_" d="M88.8,16.4H71.4c-1,0-1.7-0.8-1.7-1.7c0-1,0.8-1.7,1.7-1.7h17.4c1,0,1.7,0.8,1.7,1.7
				C90.5,15.6,89.7,16.4,88.8,16.4"/>
		</defs>
		<clipPath id="SVGID_48_">
			<use xlink:href="#SVGID_47_"  style="overflow:visible;"/>
		</clipPath>
		<g class="st24">
			<defs>
				<rect id="SVGID_49_" x="-588" y="-724.5" width="1920" height="1530"/>
			</defs>
			<clipPath id="SVGID_50_">
				<use xlink:href="#SVGID_49_"  style="overflow:visible;"/>
			</clipPath>
			<rect x="64.6" y="7.9" class="st25" width="30.9" height="13.5"/>
		</g>
	</g>
	<g>
		<defs>
			<line id="SVGID_51_" x1="71.4" y1="22.9" x2="80.1" y2="22.9"/>
		</defs>
		<clipPath id="SVGID_52_">
			<use xlink:href="#SVGID_51_"  style="overflow:visible;"/>
		</clipPath>
		<g class="st26">
			<defs>
				<rect id="SVGID_53_" x="-588" y="-724.5" width="1920" height="1530"/>
			</defs>
			<clipPath id="SVGID_54_">
				<use xlink:href="#SVGID_53_"  style="overflow:visible;"/>
			</clipPath>
			<rect x="66.4" y="17.9" class="st27" width="18.7" height="10"/>
		</g>
	</g>
	<g>
		<defs>
			<path id="SVGID_55_" d="M80.1,24.7h-8.7c-1,0-1.7-0.8-1.7-1.7c0-1,0.8-1.7,1.7-1.7h8.7c1,0,1.7,0.8,1.7,1.7
				C81.8,23.9,81,24.7,80.1,24.7"/>
		</defs>
		<clipPath id="SVGID_56_">
			<use xlink:href="#SVGID_55_"  style="overflow:visible;"/>
		</clipPath>
		<g class="st28">
			<defs>
				<rect id="SVGID_57_" x="-588" y="-724.5" width="1920" height="1530"/>
			</defs>
			<clipPath id="SVGID_58_">
				<use xlink:href="#SVGID_57_"  style="overflow:visible;"/>
			</clipPath>
			<rect x="64.6" y="16.2" class="st29" width="22.2" height="13.5"/>
		</g>
	</g>
	<g>
		<defs>
			<path id="SVGID_59_" d="M37.8,13.3c0.1,0,0.2,0,0.3,0.1c0.1,0.1,0.1,0.2,0.1,0.4s0,0.3-0.1,0.4c-0.1,0.1-0.2,0.1-0.3,0.1h-2.8
				v1.9h2.6c0.1,0,0.2,0,0.3,0.1c0.1,0.1,0.1,0.2,0.1,0.4s0,0.3-0.1,0.4c-0.1,0.1-0.2,0.1-0.3,0.1h-2.6v2.3c0,0.2-0.1,0.3-0.2,0.4
				C34.8,20,34.6,20,34.5,20c-0.2,0-0.3,0-0.4-0.1c-0.1-0.1-0.2-0.2-0.2-0.4v-5.4c0-0.3,0.1-0.5,0.2-0.6c0.1-0.1,0.3-0.2,0.6-0.2
				H37.8z"/>
		</defs>
		<clipPath id="SVGID_60_">
			<use xlink:href="#SVGID_59_"  style="overflow:visible;"/>
		</clipPath>
		<g class="st30">
			<defs>
				<rect id="SVGID_61_" x="-588" y="-724.5" width="1920" height="1530"/>
			</defs>
			<clipPath id="SVGID_62_">
				<use xlink:href="#SVGID_61_"  style="overflow:visible;"/>
			</clipPath>
			<rect x="28.9" y="8.3" class="st31" width="14.4" height="16.7"/>
		</g>
	</g>
	<g>
		<defs>
			<path id="SVGID_63_" d="M41.8,13.3c0.7,0,1.2,0.2,1.6,0.5c0.4,0.3,0.6,0.8,0.6,1.4v0.2c0,0.4-0.1,0.8-0.3,1.1
				c-0.2,0.3-0.5,0.5-0.8,0.6l1.2,2.1c0.1,0.2,0.1,0.3,0.1,0.4c-0.1,0.1-0.2,0.2-0.3,0.3C43.7,20,43.5,20,43.4,20
				c-0.1,0-0.3-0.1-0.3-0.3l-1.3-2.5c0,0-0.1,0-0.1,0h-0.1h-1.1v2.2c0,0.2-0.1,0.3-0.2,0.4C40.2,20,40.1,20,39.9,20
				c-0.2,0-0.3,0-0.4-0.1c-0.1-0.1-0.2-0.2-0.2-0.4v-5.4c0-0.3,0.1-0.5,0.2-0.6c0.1-0.1,0.3-0.2,0.6-0.2H41.8z M40.5,16.3h1.1
				c0.5,0,0.8-0.1,1-0.2c0.2-0.2,0.3-0.4,0.3-0.7v-0.1c0-0.3-0.1-0.5-0.3-0.7c-0.2-0.2-0.5-0.2-0.9-0.2h-1.2V16.3z"/>
		</defs>
		<clipPath id="SVGID_64_">
			<use xlink:href="#SVGID_63_"  style="overflow:visible;"/>
		</clipPath>
		<g class="st32">
			<defs>
				<rect id="SVGID_65_" x="-588" y="-724.5" width="1920" height="1530"/>
			</defs>
			<clipPath id="SVGID_66_">
				<use xlink:href="#SVGID_65_"  style="overflow:visible;"/>
			</clipPath>
			<rect x="34.3" y="8.3" class="st33" width="14.9" height="16.7"/>
		</g>
	</g>
	<g>
		<defs>
			<path id="SVGID_67_" d="M49.4,13.3c0.1,0,0.2,0,0.3,0.1c0.1,0.1,0.1,0.2,0.1,0.4c0,0.1,0,0.2-0.1,0.3c-0.1,0.1-0.2,0.1-0.3,0.1
				h-2.8v1.8h2.6c0.1,0,0.2,0,0.3,0.1c0.1,0.1,0.1,0.2,0.1,0.3c0,0.1,0,0.2-0.1,0.3C49.5,17,49.4,17,49.2,17h-2.6V19h2.9
				c0.1,0,0.2,0.1,0.3,0.1c0.1,0.1,0.1,0.2,0.1,0.3c0,0.1,0,0.3-0.1,0.4c-0.1,0.1-0.2,0.1-0.3,0.1h-3.2c-0.3,0-0.5-0.1-0.6-0.2
				c-0.1-0.1-0.2-0.3-0.2-0.6v-5.1c0-0.3,0.1-0.5,0.2-0.6c0.1-0.1,0.3-0.2,0.6-0.2H49.4z"/>
		</defs>
		<clipPath id="SVGID_68_">
			<use xlink:href="#SVGID_67_"  style="overflow:visible;"/>
		</clipPath>
		<g class="st34">
			<defs>
				<rect id="SVGID_69_" x="-588" y="-724.5" width="1920" height="1530"/>
			</defs>
			<clipPath id="SVGID_70_">
				<use xlink:href="#SVGID_69_"  style="overflow:visible;"/>
			</clipPath>
			<rect x="40.4" y="8.3" class="st35" width="14.4" height="16.7"/>
		</g>
	</g>
	<g>
		<defs>
			<path id="SVGID_71_" d="M55.1,13.3c0.1,0,0.2,0,0.3,0.1c0.1,0.1,0.1,0.2,0.1,0.4c0,0.1,0,0.2-0.1,0.3c-0.1,0.1-0.2,0.1-0.3,0.1
				h-2.8v1.8h2.6c0.1,0,0.2,0,0.3,0.1c0.1,0.1,0.1,0.2,0.1,0.3c0,0.1,0,0.2-0.1,0.3C55.1,17,55,17,54.9,17h-2.6V19h2.9
				c0.1,0,0.2,0.1,0.3,0.1c0.1,0.1,0.1,0.2,0.1,0.3c0,0.1,0,0.3-0.1,0.4c-0.1,0.1-0.2,0.1-0.3,0.1h-3.2c-0.3,0-0.5-0.1-0.6-0.2
				c-0.1-0.1-0.2-0.3-0.2-0.6v-5.1c0-0.3,0.1-0.5,0.2-0.6c0.1-0.1,0.3-0.2,0.6-0.2H55.1z"/>
		</defs>
		<clipPath id="SVGID_72_">
			<use xlink:href="#SVGID_71_"  style="overflow:visible;"/>
		</clipPath>
		<g class="st36">
			<defs>
				<rect id="SVGID_73_" x="-588" y="-724.5" width="1920" height="1530"/>
			</defs>
			<clipPath id="SVGID_74_">
				<use xlink:href="#SVGID_73_"  style="overflow:visible;"/>
			</clipPath>
			<rect x="46.1" y="8.3" class="st37" width="14.4" height="16.7"/>
		</g>
	</g>
</g>
</svg>
